<?xml version="1.0" standalone="no"?>
<!DOCTYPE svg PUBLIC "-//W3C//DTD SVG 20010904//EN"
 "http://www.w3.org/TR/2001/REC-SVG-20010904/DTD/svg10.dtd">
<svg version="1.0" xmlns="http://www.w3.org/2000/svg"
 width="48.000000pt" height="48.000000pt" viewBox="0 0 48.000000 48.000000"
 preserveAspectRatio="xMidYMid meet">

<g transform="translate(0.000000,48.000000) scale(0.100000,-0.100000)"
fill="#000000" stroke="none">
<path d="M210 433 c-48 -17 -83 -89 -65 -130 7 -15 9 -13 14 11 5 25 14 32 64
49 56 18 59 18 78 1 10 -9 19 -30 19 -46 0 -19 4 -27 11 -22 7 4 9 22 6 48 -9
64 -73 109 -127 89z"/>
<path d="M190 290 c0 -5 5 -10 10 -10 6 0 10 5 10 10 0 6 -4 10 -10 10 -5 0
-10 -4 -10 -10z"/>
<path d="M270 290 c0 -5 5 -10 10 -10 6 0 10 5 10 10 0 6 -4 10 -10 10 -5 0
-10 -4 -10 -10z"/>
<path d="M176 161 c-11 -17 32 -51 64 -51 17 0 39 9 50 20 28 28 14 48 -14 21
-28 -26 -44 -26 -72 0 -13 13 -24 17 -28 10z"/>
</g>
</svg>
